<?xml version="1.0" encoding="utf-8"?><svg viewBox="0 0 20 20" xmlns="http://www.w3.org/2000/svg" xmlns:xlink="http://www.w3.org/1999/xlink"><style>:root>svg{display:none}:root>svg:target{display:block}</style><svg viewBox="0 0 20 20" id="invalid" xmlns="http://www.w3.org/2000/svg"><g clip-path="url(#aa)"><path d="M10 0C4.47 0 0 4.47 0 10s4.47 10 10 10 10-4.47 10-10S15.53 0 10 0zm5 13.59L13.59 15 10 11.41 6.41 15 5 13.59 8.59 10 5 6.41 6.41 5 10 8.59 13.59 5 15 6.41 11.41 10 15 13.59z"/></g><defs><clipPath id="aa"><path d="M0 0h20v20H0z"/></clipPath></defs></svg><svg viewBox="0 0 16 12" id="mark" xmlns="http://www.w3.org/2000/svg"><path d="M0 6.51L5.48 12 16 1.49 14.49 0 5.48 9 1.49 5.01 0 6.51z"/></svg><svg viewBox="0 0 20 20" id="valid" xmlns="http://www.w3.org/2000/svg"><g clip-path="url(#ca)"><path d="M10 0C4.48 0 0 4.48 0 10s4.48 10 10 10 10-4.48 10-10S15.52 0 10 0zM8 15l-5-5 1.41-1.41L8 12.17l7.59-7.59L17 6l-9 9z"/></g><defs><clipPath id="ca"><path d="M0 0h20v20H0z"/></clipPath></defs></svg></svg>